<svg xmlns="http://www.w3.org/2000/svg" width="26" height="24" viewBox="0 0 26 24"><path fill="#FF633E" fill-rule="evenodd" d="M23.181 3.003v-.024c1.111 1.331 1.831 3.113 1.831 4.81v.244c.012.781.037 1.074-.244 2.332-.293 1.282-.732 2.197-1.88 3.918-1.147 1.721-2.612 3.235-5.176 5.383-1.294 1.062-2.722 2.124-4.358 3.223-.537.305-1.245.305-1.709 0-3.259-2.173-5.872-4.395-7.471-6.067-1.624-1.672-2.783-3.528-3.32-4.651-.537-1.111-.818-2.588-.83-3.125-.012-.281-.012-.598-.012-.989v-.244c0-1.697.72-3.479 1.831-4.81 1.111-1.331 2.747-2.222 4.419-2.222 1.599 0 3.162.708 4.272 1.807 1.111 1.099 1.868 2.625 1.978 4.211.11-1.587.867-3.113 1.978-4.211 1.111-1.099 2.673-1.807 4.272-1.807 1.672 0 3.308.891 4.419 2.222z"/></svg>