<svg xmlns="http://www.w3.org/2000/svg" width="60" height="25" viewBox="0 0 60 25"><path fill="#FFF" fill-rule="evenodd" d="M50.948 16.174c-21.825-1.625-39.87 3.433-43.905 5.309-2.25 1-2.408 2.25-2.085 2.941.292.529 1.365.838 2.542.279 8.662-4.499 26.189-8.088 43.455-7.059.414-.002.748-.333.747-.739-.002-.406-.339-.733-.753-.732l-.001.001zm5.408-6.309c-.915 1-2.25 1.75-2.67 1.375-.42-.375 0-1.558 0-1.558 2.145-1.346 6.315-4.779 6.315-7.404 0-2.433-2.25-3.183-4.628-.933-1.923 2.011-3.311 4.455-4.042 7.117-1.238 1.183-3.195 2.683-4.95 2.683-.915 0-1.17-.625-1.042-1.471 1.5-.022 5.662-1.147 5.662-4.529-.006-.565-.252-1.102-.68-1.482-.427-.379-.996-.568-1.57-.518-1.89 0-4.298 1.875-5.475 4.499-.321-.058-.634-.158-.93-.294.308-.644.559-1.313.75-2 .262-1.375-.322-2.25-1.5-2.125-.75.059-1.628.684-1.822 2.125-.079.73.057 1.468.39 2.125-.518 1.558-2.602 3.5-3.322 3.433-.72-.066.098-2.823.818-4.882.394-.395.705-.863.915-1.375.201-.401.062-.886-.322-1.125-1.072-.381-2.263.108-2.738 1.125-.286.502-.537 1.023-.75 1.558-.585.684-1.5 1.558-1.762 1.471-.39-.25.915-1.933.75-2.875-.117-.775-.832-1.325-1.628-1.25-1.178.162-2.738 2.323-2.738 2.323.183-.394.292-.818.322-1.25-.068-.808-1.628-1.183-2.408.309-.534 1.43-.927 2.908-1.17 4.412-.322.684-1.628 2.683-2.67 2.75-.848.059.195-3.558.322-3.75.458-.684 1.042-2.125.915-2.75.011-.303-.129-.593-.374-.779-.245-.185-.567-.243-.864-.155-.525.134-.971.471-1.238.933-.375-.455-.975-.669-1.56-.559-3.465.36-5.662 6.169-5.415 8.926.195 1.471.915 2.375 2.25 2.206 1.5-.184 2.738-2.308 2.738-2.308s.322 1.75 1.958 1.558c1.211-.363 2.279-1.082 3.06-2.058-.038.099-.061.203-.068.309-.262 1.471 2.25 1.308 2.475.184.75-5.559 2.67-7.867 3.255-7.867.458 0-1.238 2.625-.262 3.625.75.875 2.085.184 3.195-.735-.194.693-.302 1.407-.322 2.125-.068 1.558.518 2.808 2.085 2.75 2.085-.059 4.298-2.558 5.73-4.934.377.241.796.411 1.238.5-.149.556-.205 1.133-.165 1.706.128 1.808 1.432 2.5 2.932 2.433 1.762-.059 3.84-1.375 5.25-2.558.007.068-.018.136-.068.184-.128.875.068 2.5 1.365 2.558 1.5.125 4.102-1.375 5.408-2.941.938-.677-.165-1.677-.945-.868v.029l.002-.001zm1.395-7.522c.159.016.275.153.262.309 0 1.558-4.042 4.874-4.042 4.874s2.64-5.184 3.78-5.184zm-9.75 3.243c.135-.012.267.039.357.138.09.098.128.233.101.363 0 .875-1.238 1.558-2.602 1.558.728-1.029 1.575-2.058 2.145-2.058zm-26.999 2.441c-.128.933-1.822 5.147-2.738 5.147-1.17.059.585-5.934 2.475-5.882.368-.015.368.235.262.735h.001zm-14.677 1.125c1.11 0-.915 5.559-.652 7.992.262 2.433 3.06 1.75 2.865.309-.322-2.375 1.365-9.933 3.06-9.933 1.238 0-1.365 5.184-.848 8.434.322 2.125 3.322 1.471 3 .125-.915-4.243 2.152-8.367 1.755-11.36-.195-1.25-.915-1.933-1.762-1.933-2.805 0-5.085 5.493-5.085 5.493s.27-3.132-2.01-3.25c-3.322-.191-6.712 7.809-6.645 15.051.068 2.308 3.06 1.933 2.865.059-.195-3.228 1.762-10.985 3.458-10.985v-.002z"/></svg>