<svg xmlns="http://www.w3.org/2000/svg" width="867" height="974" viewBox="0 0 867 974"><path d="M173.827 478.467c-4.511-7.859-9.71-15.451-15.779-22.278-12.776-14.375-30.409-25.38-49.342-20.4-21.902 5.764-31.278 29.643-33.644 51.422-.426 3.921-.626 7.774-.629 11.44-.024 25.196 7.1 50.215 12.55 75.009 8.767 39.885 37.619 95.973 37.619 95.973 51.627-22.862 213.044-157.789 242.308-182.422 2.965-2.496 4.578-3.864 4.578-3.864-2.71-23.831-6.376-48.895-25.858-67.416-17.512-16.648-39.821-18.815-56.112-5.015-19.672 16.665-25.36 42.469-25.36 42.469-7.974-13.199-21.592-36.47-37.678-40.032-14.771-3.27-25.61 5.487-32.455 15.971-9.104 13.946-10.416 38.609-10.081 57.886.07 4.034.212 7.833.37 11.248-.137-2.965-2.427-7.225-4.92-11.248-2.099-3.387-4.343-6.607-5.569-8.744m111.986-294.618c-4.572 7.195-6.067 15.74-4.212 24.058 1.854 8.32 6.837 15.42 14.031 19.992 7.196 4.573 15.743 6.069 24.061 4.213l38.283-8.536.984 32.586c.339 11.181 5.599 21.53 14.432 28.394 8.831 6.862 20.157 9.402 31.079 6.968l31.808-7.095.982 32.575c.337 11.182 5.597 21.533 14.431 28.398 6.531 5.075 14.67 7.869 22.919 7.869h.016c2.73-.001 5.469-.304 8.145-.901l69.488-15.499c17.173-3.831 28.029-20.921 24.199-38.095-1.856-8.32-6.84-15.419-14.033-19.99-7.197-4.573-15.744-6.067-24.061-4.21l-38.272 8.537-.982-32.574c-.338-11.182-5.597-21.533-14.432-28.398-8.832-6.863-20.159-9.402-31.079-6.969l-31.809 7.095-.984-32.58c-.337-11.18-5.595-21.53-14.426-28.393-8.83-6.864-20.157-9.406-31.082-6.973l-69.494 15.495c-8.32 1.855-15.419 6.839-19.991 14.034m396.692-99.154c-.171-.051-17.305-5.161-35.719-11.663-9.773-3.451-17.087-6.29-22.521-8.561 5.345-15.277 13.815-38.064 23.946-64.47h-69.736c-24.839 65.76-24.839 71.612-24.839 78.316 0 7.021 2.073 17.395 11.95 26.947 6.096 5.896 13.708 10.067 19.658 13.042 8.317 4.159 19.523 8.817 33.308 13.847 22.372 8.163 44.448 14.747 45.379 15.024 3.025.9 6.152 1.356 9.294 1.356h.002c6.883-.001 13.736-2.251 19.297-6.337 5.766-4.236 9.892-10.104 11.934-16.971 5.121-17.226-4.727-35.407-21.953-40.528m-603.682 217.55c0-49.376-33.418-91.088-78.823-103.719v57.607000000000006c15.348 9.627 25.576 26.696 25.576 46.112s-10.227 36.485-25.576 46.112v57.607000000000006c45.405-12.631 78.823-54.343 78.823-103.719m758.49-107.642c-59.353 0-107.639 48.288-107.639 107.642s48.287 107.642 107.639 107.642c10.101 0 19.879-1.401 29.155-4.014v-57.728c-8.432 5.375-18.436 8.493-29.155 8.493-29.992 0-54.392-24.401-54.392-54.394s24.401-54.394 54.392-54.394c10.719 0 20.723 3.118 29.155 8.493v-57.728c-9.276-2.613-19.054-4.015-29.155-4.015m-712.711-12.181c51.627-22.862 213.044-157.789 242.308-182.422h-182.965c.07 4.034.212 7.833.37 11.248-.137-2.965-2.427-7.225-4.92-11.248h-104.334c-.426 3.921-.626 7.774-.629 11.44-.024 25.196 7.1 50.215 12.551 75.009 8.767 39.885 37.618 95.973 37.618 95.973m33.446 760.978c-12.777-14.374-30.409-25.38-49.342-20.4-21.902 5.764-31.278 29.643-33.644 51.422h104.334c-2.099-3.387-4.343-6.607-5.569-8.744-4.511-7.859-9.71-15.451-15.779-22.278m187.582-40.258c-17.512-16.648-39.821-18.815-56.112-5.015-19.672 16.665-25.36 42.469-25.36 42.469-7.974-13.199-21.592-36.47-37.678-40.032-14.771-3.27-25.61 5.487-32.455 15.971-9.104 13.946-10.416 38.609-10.081 57.886h182.965c2.965-2.496 4.578-3.864 4.578-3.864-2.71-23.831-6.376-48.895-25.858-67.416m216.794-137.144c-7.197-4.573-15.744-6.067-24.061-4.21l-38.272 8.537-.982-32.574c-.337-11.183-5.597-21.533-14.432-28.398-8.832-6.863-20.159-9.402-31.079-6.969l-31.809 7.095-.984-32.58c-.337-11.18-5.595-21.53-14.426-28.393-8.83-6.864-20.157-9.406-31.082-6.974l-69.494 15.496c-8.32 1.855-15.42 6.839-19.991 14.034-4.572 7.195-6.067 15.74-4.212 24.058 1.854 8.32 6.837 15.42 14.03 19.992 7.196 4.573 15.743 6.069 24.061 4.212l38.283-8.536.984 32.586c.339 11.181 5.599 21.53 14.432 28.394 8.831 6.862 20.157 9.402 31.079 6.968l31.807-7.095.982 32.575c.337 11.182 5.597 21.533 14.431 28.398 6.531 5.075 14.669 7.869 22.918 7.869h.016c2.73-.001 5.469-.304 8.145-.901l69.489-15.499c17.173-3.831 28.029-20.921 24.199-38.095-1.856-8.32-6.84-15.419-14.033-19.99m92.277 102.847c-8.089-3.219-16.948-3.094-24.944.351-7.994 3.444-14.17 9.796-17.395 17.903-.59 1.484-14.607 36.765-28.369 72.797-1.964 5.143-3.801 9.977-5.52 14.527h69.73700000000001c7.526-19.616 15.967-41.229 24.725-63.248 3.218-8.089 3.093-16.947-.352-24.943-3.444-7.995-9.796-14.17-17.883-17.387m27.804-296.938c-.171-.051-17.305-5.161-35.719-11.663-9.773-3.451-17.087-6.29-22.521-8.561 5.345-15.277 13.815-38.064 23.946-64.47 7.526-19.617 15.967-41.23 24.725-63.248 3.218-8.089 3.093-16.947-.352-24.943-3.445-7.995-9.796-14.17-17.883-17.387-8.089-3.219-16.948-3.094-24.943.351-7.995 3.445-14.17 9.797-17.395 17.903-.59 1.484-14.607 36.765-28.369 72.797-1.964 5.143-3.8 9.977-5.519 14.527-24.839 65.76-24.839 71.612-24.839 78.316 0 7.021 2.073 17.395 11.95 26.947 6.096 5.896 13.708 10.067 19.658 13.042 8.317 4.159 19.523 8.817 33.308 13.847 22.372 8.163 44.448 14.747 45.379 15.024 3.025.9 6.152 1.356 9.294 1.356h.002c6.883-.001 13.736-2.251 19.297-6.337 5.766-4.236 9.892-10.104 11.934-16.971 5.121-17.226-4.727-35.407-21.953-40.528m-682.506 113.831v57.608000000000004c15.348 9.626 25.576 26.696 25.576 46.112s-10.228 36.485-25.576 46.112v57.608000000000004c45.404-12.631 78.823-54.343 78.823-103.719 0-49.376-33.419-91.088-78.823-103.719m729.674 103.719c0 59.354 48.287 107.642 107.639 107.642 10.101 0 19.879-1.401 29.155-4.015v-57.727000000000004c-8.432 5.375-18.436 8.493-29.155 8.493-29.992 0-54.392-24.401-54.392-54.394s24.4-54.394 54.392-54.394c10.719 0 20.723 3.118 29.155 8.493v-57.727000000000004c-9.276-2.613-19.054-4.014-29.155-4.014-59.352 0-107.639 48.288-107.639 107.642" fill="#FFF" fill-rule="evenodd" opacity=".2"/></svg>